<?xml version="1.0" encoding="UTF-8"?>
<svg id="Layer_2" data-name="Layer 2" xmlns="http://www.w3.org/2000/svg" viewBox="0 0 39.65 39.65">
  <defs>
    <style>
      .cls-1 {
        fill: #014b3e;
        fill-rule: evenodd;
      }
    </style>
  </defs>
  <g id="Layer_1-2" data-name="Layer 1">
    <g>
      <path id="path4" class="cls-1" d="M25.18,3.76c.25-.25.25-.65,0-.89L22.51.18c-.25-.25-.65-.25-.89,0L.18,21.61c-.25.25-.25.65,0,.89l2.68,2.68c.25.25.65.25.89,0L25.18,3.76ZM23.84,3.31L3.31,23.84l-1.79-1.79L22.06,1.52l1.79,1.79Z"/>
      <path id="path8" class="cls-1" d="M39.47,18.04c.25-.25.25-.65,0-.89l-2.68-2.68c-.25-.25-.65-.25-.89,0l-21.43,21.43c-.25.25-.25.65,0,.89l2.68,2.68c.25.25.65.25.89,0l21.43-21.43ZM38.13,17.59l-20.53,20.53-1.79-1.79,20.53-20.53,1.79,1.79Z"/>
      <path id="circle12" class="cls-1" d="M1.97,16.25c.25-.25.65-.25.89,0,.25.25.25.65,0,.89h0c-.25.25-.65.25-.89,0h0c-.25-.25-.25-.65,0-.89Z"/>
      <path id="circle16" class="cls-1" d="M36.79,22.5c-.25.25-.25.65,0,.89h0c.25.25.65.25.89,0h0c.25-.25.25-.65,0-.89h0c-.25-.25-.65-.25-.89,0h0Z"/>
      <path id="path20" class="cls-1" d="M30.54,10.01l5.36,5.36-20.53,20.53-5.36-5.36,2.68-2.68c.25-.25.25-.65,0-.89s-.65-.25-.89,0l-2.68,2.68-5.36-5.36L24.29,3.76l5.36,5.36-2.68,2.68c-.25.25-.25.65,0,.89s.65.25.89,0l2.68-2.68ZM18.04,20.72l-3.57,3.57c-.25.25-.25.65,0,.89.25.25.65.25.89,0l3.57-3.57c.25-.25.25-.65,0-.89s-.65-.25-.89,0ZM24.29,14.47l-3.57,3.57c-.25.25-.25.65,0,.89s.65.25.89,0l3.57-3.57c.25-.25.25-.65,0-.89s-.65-.25-.89,0Z"/>
      <g>
        <path id="path24" class="cls-1" d="M6.43,11.79l-2.68,2.68c-.25.25-.25.65,0,.89s.65.25.89,0l2.68-2.68c.25-.25.25-.65,0-.89s-.65-.25-.89,0Z"/>
        <path id="path28" class="cls-1" d="M33.22,27.86l2.68-2.68c.25-.25.25-.65,0-.89s-.65-.25-.89,0l-2.68,2.68c-.25.25-.25.65,0,.89s.65.25.89,0Z"/>
      </g>
    </g>
  </g>
</svg>