<?xml version="1.0" encoding="UTF-8"?>
<svg id="Layer_2" data-name="Layer 2" xmlns="http://www.w3.org/2000/svg" viewBox="0 0 32.59 38.48">
  <defs>
    <style>
      .cls-1 {
        fill: #014b3e;
      }
    </style>
  </defs>
  <g id="Layer_1-2" data-name="Layer 1">
    <g>
      <path class="cls-1" d="M30.78,3.43h-2.1v-.72c0-1.5-1.2-2.71-2.71-2.71h-7.33c-1.02,0-1.92.6-2.4,1.5-.42-.9-1.32-1.5-2.4-1.5h-7.33c-1.5,0-2.71,1.2-2.71,2.71v.78H1.68c-.9-.06-1.68.72-1.68,1.62v1.38c0,.18.12.3.3.3h1.2v1.08c0,.6.48,1.14,1.14,1.14h3.37c.6,0,1.08-.48,1.08-1.14v-1.08h.96c.18,0,.3-.12.3-.3v-1.38c0-.9-.78-1.68-1.68-1.68h-2.28v-.72c0-1.14.96-2.1,2.1-2.1h7.33c1.14,0,2.1.96,2.1,2.1v6.61h-.96c-.42,0-.78.36-.78.78v11.42c-.54.12-.96.6-.96,1.2v12.51h-.72c-1.02,0-1.8.78-1.8,1.8v.84h-2.1c-.18,0-.3.12-.3.3s.12.3.3.3h14.31c.18,0,.3-.12.3-.3s-.12-.3-.3-.3h-1.14v-.9c0-1.02-.78-1.8-1.8-1.8h-.78v-12.45c0-.6-.42-1.08-.96-1.2v-11.42c0-.42-.36-.78-.78-.78h-.96V2.71c.06-1.2.96-2.1,2.16-2.1h7.33c1.14,0,2.1.96,2.1,2.1v.78h-2.28c-.9,0-1.68.78-1.68,1.68v1.38c0,.18.12.3.3.3h.96v1.08c0,.6.48,1.14,1.14,1.14h3.43c.6,0,1.14-.48,1.14-1.14v-1.08h1.2c.18,0,.3-.12.3-.3v-1.44c-.12-.9-.9-1.68-1.8-1.68ZM6.55,6.79v1.08c0,.3-.24.54-.54.54h-3.43c-.3,0-.54-.24-.54-.54v-1.08h4.51ZM20.02,35.77c.66,0,1.2.54,1.2,1.2v.9h-9.92v-.9c0-.66.54-1.2,1.2-1.2h7.52ZM16.23,31.68c-.84,0-1.5-.66-1.5-1.5s.66-1.5,1.5-1.5c.78,0,1.5.66,1.5,1.5s-.72,1.5-1.5,1.5ZM17.5,9.92c.12,0,.18.06.18.18v11.42h-2.89v-11.42c0-.12.06-.18.18-.18h2.53ZM30.36,7.88c0,.3-.24.54-.54.54h-3.37c-.3,0-.54-.24-.54-.54v-1.08h4.45v1.08Z"/>
      <path class="cls-1" d="M16.23,29.34c-.48,0-.9.42-.9.9s.42.9.9.9.9-.42.9-.9-.42-.9-.9-.9Z"/>
    </g>
  </g>
</svg>