<?xml version="1.0" encoding="UTF-8"?>
<svg id="Layer_2" data-name="Layer 2" xmlns="http://www.w3.org/2000/svg" viewBox="0 0 47.04 26.81">
  <defs>
    <style>
      .cls-1 {
        fill: #014b3e;
      }
    </style>
  </defs>
  <g id="Layer_1-2" data-name="Layer 1">
    <g>
      <g>
        <path class="cls-1" d="M44.31,24.63H2.73c-.3,0-.55-.26-.55-.55V2.73c0-.3.26-.55.55-.55h41.57c.3,0,.55.26.55.55v21.34c0,.3-.22.55-.55.55ZM3.29,23.52h40.47V3.29H3.29v20.23Z"/>
        <path class="cls-1" d="M44.31,17.65h-1.29c-.3,0-.55-.26-.55-.55s.26-.55.55-.55h.74v-.74c0-.3.26-.55.55-.55s.55.26.55.55v1.29c0,.3-.22.55-.55.55Z"/>
        <path class="cls-1" d="M40.43,17.65h-2.58c-.3,0-.55-.26-.55-.55s.26-.55.55-.55h2.58c.3,0,.55.26.55.55s-.26.55-.55.55ZM35.22,17.65h-2.58c-.3,0-.55-.26-.55-.55s.26-.55.55-.55h2.58c.3,0,.55.26.55.55s-.26.55-.55.55ZM30.02,17.65h-2.58c-.3,0-.55-.26-.55-.55s.26-.55.55-.55h2.58c.3,0,.55.26.55.55s-.26.55-.55.55ZM24.81,17.65h-2.58c-.3,0-.55-.26-.55-.55s.26-.55.55-.55h2.58c.3,0,.55.26.55.55s-.26.55-.55.55ZM19.61,17.65h-2.58c-.3,0-.55-.26-.55-.55s.26-.55.55-.55h2.58c.3,0,.55.26.55.55s-.22.55-.55.55ZM14.4,17.65h-2.58c-.3,0-.55-.26-.55-.55s.26-.55.55-.55h2.58c.3,0,.55.26.55.55s-.22.55-.55.55ZM9.23,17.65h-2.58c-.3,0-.55-.26-.55-.55s.26-.55.55-.55h2.58c.3,0,.55.26.55.55s-.26.55-.55.55Z"/>
        <path class="cls-1" d="M4.02,17.65h-1.29c-.3,0-.55-.26-.55-.55v-1.29c0-.3.26-.55.55-.55s.55.26.55.55v.74h.74c.3,0,.55.26.55.55s-.26.55-.55.55Z"/>
        <path class="cls-1" d="M2.73,14.77c-.3,0-.55-.26-.55-.55v-1.59c0-.3.26-.55.55-.55s.55.26.55.55v1.59c0,.3-.26.55-.55.55Z"/>
        <path class="cls-1" d="M2.73,11.56c-.3,0-.55-.26-.55-.55v-1.29c0-.3.26-.55.55-.55h1.29c.3,0,.55.26.55.55s-.26.55-.55.55h-.74v.74c0,.3-.26.55-.55.55Z"/>
        <path class="cls-1" d="M40.43,10.26h-2.58c-.3,0-.55-.26-.55-.55s.26-.55.55-.55h2.58c.3,0,.55.26.55.55s-.26.55-.55.55ZM35.22,10.26h-2.58c-.3,0-.55-.26-.55-.55s.26-.55.55-.55h2.58c.3,0,.55.26.55.55s-.26.55-.55.55ZM30.02,10.26h-2.58c-.3,0-.55-.26-.55-.55s.26-.55.55-.55h2.58c.3,0,.55.26.55.55s-.26.55-.55.55ZM24.81,10.26h-2.58c-.3,0-.55-.26-.55-.55s.26-.55.55-.55h2.58c.3,0,.55.26.55.55s-.22.55-.55.55ZM19.61,10.26h-2.58c-.3,0-.55-.26-.55-.55s.26-.55.55-.55h2.58c.3,0,.55.26.55.55s-.22.55-.55.55ZM14.44,10.26h-2.58c-.3,0-.55-.26-.55-.55s.26-.55.55-.55h2.58c.3,0,.55.26.55.55s-.26.55-.55.55ZM9.23,10.26h-2.58c-.3,0-.55-.26-.55-.55s.26-.55.55-.55h2.58c.3,0,.55.26.55.55s-.26.55-.55.55Z"/>
        <path class="cls-1" d="M44.31,11.56c-.3,0-.55-.26-.55-.55v-.74h-.74c-.3,0-.55-.26-.55-.55s.26-.55.55-.55h1.29c.3,0,.55.26.55.55v1.29c0,.3-.22.55-.55.55Z"/>
        <path class="cls-1" d="M44.31,14.77c-.3,0-.55-.26-.55-.55v-1.59c0-.3.26-.55.55-.55s.55.26.55.55v1.59c0,.3-.22.55-.55.55Z"/>
        <path class="cls-1" d="M32.09,24.63h-1.29c-.3,0-.55-.26-.55-.55s.26-.55.55-.55h.74v-.74c0-.3.26-.55.55-.55s.55.26.55.55v1.29c0,.3-.26.55-.55.55Z"/>
        <path class="cls-1" d="M27.88,24.63h-2.92c-.3,0-.55-.26-.55-.55s.26-.55.55-.55h2.92c.3,0,.55.26.55.55s-.22.55-.55.55ZM22.08,24.63h-2.92c-.3,0-.55-.26-.55-.55s.26-.55.55-.55h2.92c.3,0,.55.26.55.55s-.26.55-.55.55Z"/>
        <path class="cls-1" d="M16.25,24.63h-1.29c-.3,0-.55-.26-.55-.55v-1.29c0-.3.26-.55.55-.55s.55.26.55.55v.74h.74c.3,0,.55.26.55.55s-.26.55-.55.55Z"/>
        <path class="cls-1" d="M14.95,20.64c-.3,0-.55-.26-.55-.55v-2.7c0-.3.26-.55.55-.55s.55.26.55.55v2.7c0,.33-.26.55-.55.55ZM14.95,15.29c-.3,0-.55-.26-.55-.55v-2.7c0-.3.26-.55.55-.55s.55.26.55.55v2.7c0,.33-.26.55-.55.55ZM14.95,9.93c-.3,0-.55-.26-.55-.55v-2.7c0-.3.26-.55.55-.55s.55.26.55.55v2.7c0,.3-.26.55-.55.55Z"/>
        <path class="cls-1" d="M14.95,4.58c-.3,0-.55-.26-.55-.55v-1.29c0-.3.26-.55.55-.55h1.29c.3,0,.55.26.55.55s-.26.55-.55.55h-.74v.74c0,.3-.26.55-.55.55Z"/>
        <path class="cls-1" d="M27.88,3.29h-2.92c-.3,0-.55-.26-.55-.55s.26-.55.55-.55h2.92c.3,0,.55.26.55.55s-.22.55-.55.55ZM22.08,3.29h-2.92c-.3,0-.55-.26-.55-.55s.26-.55.55-.55h2.92c.3,0,.55.26.55.55s-.26.55-.55.55Z"/>
        <path class="cls-1" d="M32.09,4.58c-.3,0-.55-.26-.55-.55v-.74h-.74c-.3,0-.55-.26-.55-.55s.26-.55.55-.55h1.29c.3,0,.55.26.55.55v1.29c0,.3-.26.55-.55.55Z"/>
        <path class="cls-1" d="M32.09,20.64c-.3,0-.55-.26-.55-.55v-2.7c0-.3.26-.55.55-.55s.55.26.55.55v2.7c0,.33-.26.55-.55.55ZM32.09,15.29c-.3,0-.55-.26-.55-.55v-2.7c0-.3.26-.55.55-.55s.55.26.55.55v2.7c0,.33-.26.55-.55.55ZM32.09,9.93c-.3,0-.55-.26-.55-.55v-2.7c0-.3.26-.55.55-.55s.55.26.55.55v2.7c0,.33-.26.55-.55.55Z"/>
      </g>
      <path class="cls-1" d="M2.73.55c1.22,0,2.18.96,2.18,2.18s-.96,2.18-2.18,2.18S.55,3.95.55,2.73c0-1.18.96-2.18,2.18-2.18Z"/>
      <path class="cls-1" d="M2.73,4.91c-1.22,0-2.18-.96-2.18-2.18S1.51.55,2.73.55"/>
      <path class="cls-1" d="M2.73,5.46c-.74,0-1.4-.3-1.92-.81-.52-.52-.81-1.22-.81-1.92,0-.74.3-1.4.81-1.92.52-.52,1.22-.81,1.92-.81h0c.74,0,1.4.3,1.92.81.52.52.81,1.22.81,1.92,0,.74-.3,1.4-.81,1.92-.52.52-1.18.81-1.92.81h0ZM2.73,1.11c-.44,0-.85.18-1.14.48s-.48.7-.48,1.14.18.85.48,1.14c.3.3.7.48,1.14.48h0c.44,0,.85-.18,1.14-.48.3-.3.48-.7.48-1.14s-.18-.85-.48-1.14c-.3-.3-.7-.48-1.14-.48h0Z"/>
      <path class="cls-1" d="M44.31.55c1.22,0,2.18.96,2.18,2.18s-.96,2.18-2.18,2.18-2.18-.96-2.18-2.18,1-2.18,2.18-2.18Z"/>
      <path class="cls-1" d="M44.31,4.91c-1.22,0-2.18-.96-2.18-2.18s.96-2.18,2.18-2.18"/>
      <path class="cls-1" d="M44.31,5.46c-.74,0-1.4-.3-1.92-.81-.52-.52-.81-1.22-.81-1.92,0-.74.3-1.4.81-1.92S43.6,0,44.31,0h0C45.04,0,45.71.3,46.23.81c.52.52.81,1.22.81,1.92,0,.74-.3,1.4-.81,1.92-.48.52-1.18.81-1.92.81h0ZM44.31,1.11c-.44,0-.85.18-1.14.48s-.48.7-.48,1.14.18.85.48,1.14c.3.3.7.48,1.14.48h0c.44,0,.85-.18,1.14-.48s.48-.7.48-1.14-.18-.85-.48-1.14c-.3-.3-.7-.48-1.14-.48h0Z"/>
      <path class="cls-1" d="M44.31,26.25c-1.22,0-2.18-.96-2.18-2.18s.96-2.18,2.18-2.18,2.18.96,2.18,2.18-.96,2.18-2.18,2.18Z"/>
      <path class="cls-1" d="M44.31,21.89c1.22,0,2.18.96,2.18,2.18s-.96,2.18-2.18,2.18"/>
      <path class="cls-1" d="M44.31,26.81h0c-.74,0-1.4-.3-1.92-.81-.52-.52-.81-1.22-.81-1.92,0-.74.3-1.4.81-1.92s1.22-.81,1.92-.81h0c.74,0,1.4.3,1.92.81.52.52.81,1.22.81,1.92,0,.74-.3,1.4-.81,1.92-.48.52-1.18.81-1.92.81ZM44.31,25.7h0c.44,0,.85-.18,1.14-.48s.48-.7.48-1.14-.18-.85-.48-1.14-.7-.48-1.14-.48h0c-.44,0-.85.18-1.14.48s-.48.7-.48,1.14.18.85.48,1.14c.3.3.7.48,1.14.48h0Z"/>
      <path class="cls-1" d="M2.73,26.25c-1.22,0-2.18-.96-2.18-2.18s.96-2.18,2.18-2.18,2.18.96,2.18,2.18-1,2.18-2.18,2.18Z"/>
      <path class="cls-1" d="M2.73,21.89c1.22,0,2.18.96,2.18,2.18s-.96,2.18-2.18,2.18"/>
      <path class="cls-1" d="M2.73,26.81h0c-.74,0-1.4-.3-1.92-.81-.52-.52-.81-1.22-.81-1.92,0-.74.3-1.4.81-1.92.52-.52,1.22-.81,1.92-.81h0c.74,0,1.4.3,1.92.81.52.52.81,1.22.81,1.92,0,.74-.3,1.4-.81,1.92s-1.18.81-1.92.81ZM2.73,25.7h0c.44,0,.85-.18,1.14-.48.3-.3.48-.7.48-1.14s-.18-.85-.48-1.14-.7-.48-1.14-.48h0c-.44,0-.85.18-1.14.48s-.48.7-.48,1.14.18.85.48,1.14.7.48,1.14.48h0Z"/>
    </g>
  </g>
</svg>