<?xml version="1.0" encoding="UTF-8"?>
<svg id="Layer_2" data-name="Layer 2" xmlns="http://www.w3.org/2000/svg" viewBox="0 0 37.47 37.47">
  <defs>
    <style>
      .cls-1 {
        fill: #014b3e;
      }
    </style>
  </defs>
  <g id="Layer_1-2" data-name="Layer 1">
    <g>
      <path class="cls-1" d="M32.89,6.47l1.03.13c.37.04.7-.23.74-.59.04-.36-.22-.68-.57-.73l-2.56-.32c-.36-.05-.7.21-.74.57,0,0,0,0,0,.01l-.32,2.56c-.04.37.23.7.6.73.36.04.68-.22.73-.57l.11-.89c9.7,11.11,1.6,28.81-13.17,28.75-3.4,0-6.72-.99-9.56-2.86-.31-.2-.72-.12-.93.19-.2.31-.12.72.19.93,0,0,0,0,0,0,3.06,2.02,6.64,3.09,10.3,3.08,15.93.06,24.64-19.03,14.16-31Z"/>
      <path class="cls-1" d="M6.3,28.57c-.36-.04-.69.23-.72.59,0,0,0,.01,0,.02l-.07.84C-4.11,18.89,4.01,1.28,18.74,1.34c3.4,0,6.72.99,9.56,2.86.31.2.72.12.93-.19s.12-.72-.19-.93h0C25.98,1.07,22.4,0,18.74,0,2.94-.06-5.82,18.76,4.39,30.78l-.95-.13c-.37-.05-.7.2-.76.57-.05.37.2.7.57.76l2.68.38c.37.05.7-.2.76-.57,0-.01,0-.02,0-.04l.21-2.45c.03-.37-.24-.69-.61-.72,0,0,0,0,0,0Z"/>
      <path class="cls-1" d="M18.19,4.96c-.37.53-9.15,12.97-9.15,18.12s4.34,9.7,9.7,9.7,9.7-4.34,9.7-9.7S19.66,5.49,19.28,4.96c-.24-.3-.68-.35-.98-.12-.04.03-.08.07-.12.12ZM17.54,25.68c.37,0,.66.32.65.69,0,.36-.3.64-.65.65h-3.49c-.37,0-.67-.32-.66-.69,0-.17.07-.34.2-.46l2.98-2.88c1.05-1.08-.62-2.46-1.63-1.5l-.42.41c-.27.25-.69.24-.95-.03-.25-.26-.24-.68.02-.94l.42-.41c2.34-2.11,5.77,1.06,3.49,3.43l-1.79,1.73h1.83ZM22.26,20.14c.2-.31.62-.4.93-.2.19.12.3.33.31.55v4.01c.37.05.63.38.58.75-.04.3-.28.54-.58.58v.51c0,.37-.3.67-.67.67s-.67-.3-.67-.67v-.51h-2.25c-.37,0-.67-.3-.67-.67,0-.12.03-.24.1-.34l2.92-4.68Z"/>
      <path class="cls-1" d="M22.15,22.83l-1.04,1.67h1.04v-1.67Z"/>
    </g>
  </g>
</svg>