<?xml version="1.0" encoding="UTF-8"?>
<svg id="Layer_2" data-name="Layer 2" xmlns="http://www.w3.org/2000/svg" viewBox="0 0 35.17 39.92">
  <defs>
    <style>
      .cls-1 {
        fill: #014b3e;
      }
    </style>
  </defs>
  <g id="Layer_1-2" data-name="Layer 1">
    <g>
      <path class="cls-1" d="M17.58,12.51c-1.96,0-3.57,1.64-3.53,3.6h7.06c.04-1.96-1.57-3.6-3.53-3.6h0Z"/>
      <path class="cls-1" d="M35.16,9.65c-.02-.53-.4-.98-.92-1.09C24.67,6.52,18.92.86,18.45.38c-.22-.24-.53-.38-.86-.38s-.64.14-.86.38c-.44.45-6.2,6.13-15.79,8.18-.52.11-.9.56-.92,1.09-.01.24-.22,5.97,1.74,12.56,1.16,3.9,2.85,7.29,5.02,10.08,2.18,2.79,4.96,5.07,8.15,6.61.74.36,1.63.86,2.45,1,.73.12,1.64-.44,2.29-.73,3.43-1.54,6.41-3.92,8.72-6.88,2.17-2.78,3.86-6.18,5.02-10.08,1.96-6.59,1.75-12.32,1.74-12.56h0ZM24.94,27.02c0,.65-.52,1.17-1.17,1.17h-12.37c-.65,0-1.17-.52-1.17-1.17v-9.75c0-.65.52-1.17,1.17-1.17h.32c-.04-3.25,2.62-5.94,5.87-5.94s5.91,2.69,5.87,5.94h.32c.65,0,1.17.52,1.17,1.17v9.75h0Z"/>
      <path class="cls-1" d="M12.57,18.45v7.41h10.03v-7.41h-10.03ZM17.58,23.32c-.65,0-1.17-.52-1.17-1.17s.52-1.17,1.17-1.17,1.17.52,1.17,1.17-.52,1.17-1.17,1.17Z"/>
    </g>
  </g>
</svg>