<?xml version="1.0" encoding="UTF-8"?>
<svg id="Layer_2" data-name="Layer 2" xmlns="http://www.w3.org/2000/svg" viewBox="0 0 44.72 33.54">
  <defs>
    <style>
      .cls-1 {
        fill: #014b3e;
      }
    </style>
  </defs>
  <g id="Layer_1-2" data-name="Layer 1">
    <g>
      <path class="cls-1" d="M38.76,3.72h-8.94v-.97c0-.59-.35-1.13-.89-1.36-4.18-1.85-8.95-1.85-13.13,0-.54.24-.89.77-.89,1.36v.97H5.96C2.67,3.72,0,6.39,0,9.68v17.89c0,3.29,2.67,5.96,5.96,5.96h32.8c3.29,0,5.96-2.67,5.96-5.96V9.68c0-3.29-2.67-5.96-5.96-5.96ZM14.16,21.61v-5.96h4.47c1.06.61,2.19,1.1,3.36,1.44.26.07.54.07.8,0,1.15-.35,2.26-.83,3.29-1.44h4.47v5.96H14.16ZM2.98,21.61v-5.96h8.2v5.96H2.98ZM33.54,15.65h8.2v5.96h-8.2v-5.96ZM38.76,6.7c1.65,0,2.98,1.33,2.98,2.98v2.98h-12.51c.38-.71.58-1.5.58-2.31v-3.65h8.94ZM17.89,3.72c2.89-1.04,6.05-1.04,8.94,0v6.63c0,1.84-2.98,3.23-4.47,3.73-1.38-.47-4.47-1.86-4.47-3.73V3.72ZM5.96,6.7h8.94v3.65c0,.81.2,1.6.58,2.31H2.98v-2.98c0-1.65,1.33-2.98,2.98-2.98ZM2.98,27.57v-2.98h17.89v5.96H5.96c-1.65,0-2.98-1.33-2.98-2.98ZM38.76,30.56h-14.91v-5.96h17.89v2.98c0,1.65-1.33,2.98-2.98,2.98Z"/>
      <path class="cls-1" d="M21.03,10.38c.58.49,1.43.47,1.98-.05l2.04-1.92c.62-.54.69-1.48.15-2.1-.54-.62-1.48-.69-2.1-.15-.03.03-.06.05-.08.08l-1.07,1.01-.28-.23c-.63-.53-1.57-.45-2.1.18s-.45,1.57.18,2.1l1.29,1.08Z"/>
    </g>
  </g>
</svg>