<svg xmlns="http://www.w3.org/2000/svg" id="Layer_1" enable-background="new 0 0 512 512" height="512" viewBox="0 0 512 512" width="512"><path clip-rule="evenodd" d="m210.806 125.852-12.036-12.036-12.036 12.036zm83.344 308.061h-28.456v25.79h28.456zm44.455 0h-28.456v25.79h28.456zm-44.455-57.79h-28.456v-25.79h28.456zm44.455 0h-28.456v-25.79h28.456zm-28.456 16h28.456v25.79h-28.456zm-44.455 0h28.456v25.79h-28.456zm0-109.887h72.912v9.809h-72.912zm165.133 44.574h-28.456v25.79h28.456zm44.456 0h-28.456v25.79h28.456zm-44.456-57.791h-28.456v-25.79h28.456zm44.456 0h-28.456v-25.79h28.456zm-28.456 16h28.456v25.79h-28.456zm-44.456 0h28.456v25.79h-28.456zm-23.883 215.981v-296.802h120.677v296.802h-29.356v-83.131c0-7.712-6.979-14.004-15.538-14.004h-30.889c-8.558 0-15.538 6.291-15.538 14.004v83.131zm23.883-323.106h72.912v10.305h-72.912zm-39.883 323.106h-120.677v-192.955h120.677zm-130.369-376.461 12.036-12.036h-24.072zm45.385 1.313-12.036-12.036-12.036 12.036zm53.734-11.11-11.109 11.11h24.392zm-32.422 9.797 12.036-12.036h-24.072zm-123.033-32.036h102.995l-102.995-49.555zm-46.278 0h26.278v-61.503h-9.652zm24.965 316.288-33.275-33.275v66.551zm1.313-87.863v66.551l-33.275-33.275zm-1.313-21.313-33.275-33.275v66.551zm1.313-87.863v66.551l-33.275-33.275zm-1.313-21.312-33.275-33.275v66.551zm-21.962-44.588h23.275v23.275zm20.877-33.349 12.036 12.036 12.036-12.036zm-9.276 13.349-12.036-12.036-12.036 12.036zm-44.235-2.464 10.885-10.885h-18.325zm-17.611-30.885v-2.04c0-1.686-.705-3.216-1.835-4.308l38.489-31.025-10.104 37.373zm40.244 370.876 33.275-33.275v33.275zm-42.327 0h21.015v-317.527h-18.932v2.04c0 3.3-2.7 6-6 6h-57.429c-3.3 0-6-2.7-6-6v-57.43c0-3.3 2.7-6 6-6h38.263l68.906-55.543 2.838-10.498c1.194-4.467 5.234-7.413 9.649-7.411l27.293-.01c5.523 0 10 4.477 10 10v4.265l139.747 67.238h16.635c2.648 0 5.055 1.03 6.844 2.709l39.436 32.983c7.191 6.017 2.801 17.634-6.406 17.639l-33.406.018v38.155h13c2.2 0 4 1.8 4 4v42c0 2.2-1.8 4-4 4h-42c-2.2 0-4-1.8-4-4v-42c0-2.2 1.8-4 4-4h13v-38.155h-146.85v317.527h21.015c2.2 0 4 1.8 4 4v29.621c0 2.2-1.8 4-4 4h-116.618c-2.2 0-4-1.8-4-4v-29.621c0-2.2 1.799-4 4-4z" fill-rule="evenodd" fill="#ffffff"/></svg>