<svg xmlns="http://www.w3.org/2000/svg" clip-rule="evenodd" fill-rule="evenodd" stroke-linejoin="round" stroke-miterlimit="2" viewBox="0 0 64 64"><g transform="translate(-43 -566)"><g transform="matrix(.37 .37 -.322 .322 46.722 493.417)"><path d="m139.971 112.314 4.458 5.127c-1.497-2.632-2.354-5.673-2.354-8.915 0-6.273 3.209-11.79 8.05-15.056 4.842 3.266 8.051 8.783 8.051 15.056 0 5.85-2.791 11.043-7.094 14.365v-17.324c0-.607-.429-1.099-.956-1.099-.528 0-.956.492-.956 1.099v17.324l20.149 23.167c1.386-4.289 3.578-8.31 6.574-11.755 5.061-5.82 11.555-8.998 18.182-9.537 4.788-.389 9.646.601 14.082 2.969 2.954 1.577 5.723 3.767 8.159 6.568 1.395 1.603 2.615 3.332 3.661 5.155.332-.769.637-1.552.915-2.347-.955-1.529-2.029-2.989-3.224-4.363-2.45-2.817-5.215-5.054-8.164-6.711.009-4.095 1.372-8.187 4.087-11.309 1.846-2.123 4.083-3.527 6.445-4.212-.288-.675-.596-1.339-.925-1.99-2.517.821-4.892 2.37-6.872 4.647-2.874 3.304-4.415 7.565-4.623 11.894-4.01-1.875-8.297-2.729-12.559-2.561.679-7.185 3.411-14.16 8.197-19.663 2.138-2.459 4.532-4.446 7.083-5.962l-5.595-6.433c-.373-.429-.373-1.125 0-1.554.374-.429.979-.429 1.352 0l9.874 11.352c5.691 6.543 8.888 15.418 8.888 24.672s-3.197 18.128-8.888 24.672l-1.684 1.935c-5.69 6.543-13.409 10.22-21.457 10.22s-15.767-3.677-21.458-10.22l-32.526-37.399c-1.95 2.66-4.67 4.327-7.689 4.327-3.656 0-6.875-2.445-8.817-6.138 1.943-3.695 5.161-6.14 8.817-6.14 3.657 0 6.875 2.446 8.817 6.139zm40.303 43.873c.614.348 1.238.669 1.872.965.084-3.98 1.445-7.93 4.083-10.964 2.861-3.289 6.658-4.852 10.409-4.688 3.395.148 6.752 1.71 9.341 4.688 1.774 2.039 2.971 4.492 3.59 7.09.552-.462 1.09-.948 1.614-1.457-.751-2.629-2.035-5.099-3.852-7.188-2.944-3.385-6.76-5.162-10.62-5.33-4.264-.186-8.581 1.591-11.834 5.33-2.798 3.218-4.333 7.342-4.603 11.554z" fill="#ffffff"/></g></g></svg>