<svg xmlns="http://www.w3.org/2000/svg" height="512" viewBox="0 0 60 60" width="512"><g id="022---Housing-rates-up"><path id="Shape" d="m24 40-4.53-8.49c-.1695612-.3023773-.4836349-.4953623-.83-.51h-11.3c-.34636512.0146377-.66043876.2076227-.83.51l-4.51 8.49z" fill="#ffffff"/><path id="Shape" d="m48 29h-8v13h8z" fill="#ffffff"/><path id="Shape" d="m50 35h8v-18h-8z" fill="#ffffff"/><path id="Shape" d="m48 19c0-.5522847-.4477153-1-1-1h-6c-.5522847 0-1 .4477153-1 1v8h8z" fill="#ffffff"/><path id="Shape" d="m58 3c0-.55228475-.4477153-1-1-1h-6c-.5522847 0-1 .44771525-1 1v12h8z" fill="#ffffff"/><path id="Shape" d="m38.92 3.28 3.37 3.38c.1802283.20563782.4368023.32850422.71.34.4062651.00236262.77358-.24130378.929371-.61651849.1557909-.37521472.0690889-.80739105-.219371-1.09348151l-5-4.95c-.213167-.2229055-.5172662-.33497411-.8241036-.30370405s-.5820777.20237962-.7458964.46370405l-4.8 4.79c-.3921222.39212217-.3921222 1.02787783 0 1.42s1.0278778.39212217 1.42 0l3.07-3.08c-1.56 19.09-20.97 19.37-21.83 19.37-.5522847 0-1 .4477153-1 1s.4477153 1 1 1c.23 0 22.44-.26 23.92-21.72z" fill="#ffffff"/><path id="Shape" d="m59 58h-1v-21h-8v21h-2v-14h-8v14h-2v-22c0-.5522847-.4477153-1-1-1h-6c-.5522847 0-1 .4477153-1 1v10h5c.5522847 0 1 .4477153 1 1v11h-2v-10h-10v10h-2v-16h-18v16h-3c-.55228475 0-1 .4477153-1 1s.44771525 1 1 1h58c.5522847 0 1-.4477153 1-1s-.4477153-1-1-1zm-53-14c0-.5522847.44771525-1 1-1h2c.55228475 0 1 .4477153 1 1s-.44771525 1-1 1h-1v2h1c.55228475 0 1 .4477153 1 1s-.44771525 1-1 1h-2c-.55228475 0-1-.4477153-1-1zm8 14h-2v-4c0-.5522847-.4477153-1-1-1h-2c-.55228475 0-1 .4477153-1 1v4h-2v-4c0-1.6568542 1.34314575-3 3-3h2c1.6568542 0 3 1.3431458 3 3zm5-3c.5522847 0 1 .4477153 1 1s-.4477153 1-1 1h-2c-.5522847 0-1-.4477153-1-1v-4c0-.5522847.4477153-1 1-1h2c.5522847 0 1 .4477153 1 1s-.4477153 1-1 1h-1v2zm0-8c.5522847 0 1 .4477153 1 1s-.4477153 1-1 1h-2c-.5522847 0-1-.4477153-1-1v-4c0-.5522847.4477153-1 1-1h2c.5522847 0 1 .4477153 1 1s-.4477153 1-1 1h-1v2zm14 11h-2v-4c0-.5522847-.4477153-1-1-1h-1c-.5522847 0-1 .4477153-1 1v4h-2v-4c0-1.6568542 1.3431458-3 3-3h1c1.6568542 0 3 1.3431458 3 3z" fill="#ffffff"/></g></svg>