<svg xmlns="http://www.w3.org/2000/svg" id="Capa_1" enable-background="new 0 0 512 512" height="512" viewBox="0 0 512 512" width="512"><g><path d="m421.5 357.986h30v30h-30z" fill="#ffffff"/><path d="m421.5 237.986h30v30h-30z" fill="#ffffff"/><path d="m507.26 151.043-120.5-112.972c-5.771-5.409-14.748-5.409-20.52 0l-28.06 26.307 69.097 64.78c9.038 8.472 14.223 20.438 14.223 32.829v46h45c8.284 0 15 6.716 15 15v60c0 8.284-6.716 15-15 15h-45v30h45c8.284 0 15 6.716 15 15v60c0 8.284-6.716 15-15 15h-45v60h75.5c8.284 0 15-6.716 15-15v-301c0-4.147-1.716-8.108-4.74-10.944z" fill="#ffffff"/><path d="m145.759 38.071c-5.77-5.409-14.749-5.409-20.518 0l-120.5 112.972c-3.025 2.836-4.741 6.797-4.741 10.943v301c0 8.284 6.716 15 15 15h75.5v-60h-45c-8.284 0-15-6.716-15-15v-60c0-8.284 6.716-15 15-15h45v-30h-45c-8.284 0-15-6.716-15-15v-60c0-8.284 6.716-15 15-15h45v-46c0-12.388 5.183-24.353 14.221-32.827l69.098-64.782z" fill="#ffffff"/><path d="m60.5 357.986h30v30h-30z" fill="#ffffff"/><path d="m60.5 237.986h30v30h-30z" fill="#ffffff"/><path d="m241 387.986h30v90h-30z" fill="#ffffff"/><path d="m241 237.986h30v30h-30z" fill="#ffffff"/><path d="m266.259 38.071c-5.77-5.409-14.748-5.41-20.518 0l-120.5 112.973c-3.024 2.836-4.741 6.797-4.741 10.943v316h90.5v-90h-5.5c-8.284 0-15-6.716-15-15s6.716-15 15-15h101c8.284 0 15 6.716 15 15s-6.716 15-15 15h-5.5v90h90.5v-316c0-4.146-1.716-8.107-4.741-10.943zm40.241 259.915h-101c-8.284 0-15-6.716-15-15s6.716-15 15-15h5.5v-45c0-8.284 6.716-15 15-15h60c8.284 0 15 6.716 15 15v45h5.5c8.284 0 15 6.716 15 15s-6.716 15-15 15z" fill="#ffffff"/></g></svg>