<svg xmlns="http://www.w3.org/2000/svg" id="Layer_1" enable-background="new 0 0 512 512" viewBox="0 0 512 512"><path clip-rule="evenodd" d="m482.81 27.93c-192.63 20.97-322.83 73.31-397.93 159.9-69.5 80.15-79.19 191.1-26.18 297.42h300.91c-32.81-28.72-58.44-64.77-74.61-105.14-17.17-42.87-21.66-86.33-12.64-122.38 19.12-76.4 95.74-146.92 210.45-193.87zm-110.3 270.21v8.13h-70.54v-8.13zm-16.8-12h-36.92v-63.87h36.92zm45.46-96.72h70.54v8.13h-70.54zm-45.46 20.85h-36.92v-18.26c10.4-13.39 22.76-26.35 36.92-38.77zm99.2-72.6v39.76h-36.93v-39.76zm0-48.3v36.3h-36.93v-16.73c11.67-6.82 24-13.35 36.93-19.57zm-287.05 141.87c3.27-6.62 6.91-13.19 10.83-19.51 1.74-2.82 5.44-3.69 8.26-1.94 2.82 1.74 3.69 5.44 1.94 8.26-3.71 5.99-7.17 12.22-10.27 18.5-1.04 2.12-3.17 3.35-5.38 3.35-.89 0-1.8-.2-2.65-.62-2.97-1.46-4.19-5.07-2.73-8.04zm-18.91 54.81c1.5-7.11 3.34-14.19 5.46-21.05.98-3.17 4.34-4.94 7.51-3.96 3.16.98 4.93 4.34 3.95 7.51-2.01 6.51-3.75 13.23-5.17 19.97-.6 2.82-3.09 4.76-5.87 4.76-.41 0-.82-.04-1.24-.13-3.24-.67-5.32-3.85-4.64-7.1zm1.5 30.78c3.31.19 5.84 3.03 5.64 6.34-.4 6.73-.52 13.64-.37 20.53.07 3.32-2.56 6.06-5.87 6.13-.05 0-.09 0-.14 0-3.25 0-5.92-2.6-5.99-5.87-.16-7.21-.02-14.44.39-21.49.2-3.31 3.02-5.82 6.34-5.64zm1.5 57.1c3.28-.49 6.33 1.77 6.82 5.04.95 6.4 2.14 12.93 3.54 19.4.7 3.24-1.36 6.43-4.6 7.13-.43.09-.85.13-1.27.13-2.77 0-5.25-1.92-5.86-4.73-1.45-6.72-2.69-13.51-3.68-20.16-.49-3.27 1.77-6.32 5.05-6.81zm48.4-182.57c-2.53-2.14-2.85-5.92-.72-8.45.77-.91 1.54-1.81 2.32-2.71 4.13-4.76 8.54-9.5 13.1-14.07 2.33-2.35 6.13-2.35 8.48-.01s2.35 6.14.01 8.49c-4.36 4.37-8.57 8.9-12.52 13.46-.75.86-1.49 1.72-2.21 2.58-1.19 1.41-2.88 2.13-4.59 2.13-1.37-.01-2.75-.47-3.87-1.42zm-28.49 241.95c1.97 5.94 4.14 11.99 6.46 17.96 1.2 3.09-.33 6.56-3.42 7.77-.71.28-1.45.41-2.17.41-2.4 0-4.67-1.45-5.59-3.83-2.4-6.17-4.64-12.4-6.67-18.54-1.04-3.15.67-6.54 3.81-7.58 3.15-1.04 6.54.66 7.58 3.81zm68.37-282.07c-2.07-2.59-1.64-6.37.95-8.43 5.73-4.56 11.78-9.07 17.99-13.39 2.72-1.89 6.46-1.23 8.35 1.49 1.9 2.72 1.23 6.46-1.49 8.35-6 4.18-11.85 8.53-17.37 12.93-1.11.88-2.43 1.31-3.74 1.31-1.76 0-3.51-.77-4.69-2.26zm52.04-29.61c-2.08 0-4.11-1.09-5.21-3.02-1.65-2.88-.65-6.54 2.23-8.19 6.61-3.79 13.56-7.52 20.64-11.12 2.96-1.5 6.57-.32 8.07 2.63 1.5 2.96.32 6.57-2.64 8.07-6.9 3.5-13.67 7.15-20.12 10.83-.93.55-1.95.8-2.97.8zm50.77-25.16c-2.33 0-4.54-1.36-5.52-3.63-1.31-3.04.1-6.58 3.14-7.89 6.48-2.79 13.19-5.53 19.93-8.16 3.09-1.2 6.57.32 7.77 3.41s-.33 6.57-3.41 7.77c-6.62 2.58-13.19 5.27-19.54 8.01-.78.33-1.58.49-2.37.49zm47.17-24.14c-1.05-3.14.65-6.54 3.79-7.59 6.53-2.18 13.25-4.32 19.99-6.38 3.17-.97 6.52.82 7.49 3.99s-.82 6.52-3.99 7.49c-6.64 2.03-13.26 4.14-19.69 6.28-.63.21-1.27.31-1.9.31-2.51 0-4.85-1.58-5.69-4.1z" fill-rule="evenodd" fill="#ffffff"/></svg>