<svg xmlns="http://www.w3.org/2000/svg" id="Layer_1" viewBox="0 0 512 512" data-name="Layer 1"><path d="m161.898 131.425c0-8.131 6.87-15 15.001-15h162.089c8.131 0 15.001 6.869 15.001 15s-6.87 15-15.001 15h-162.089c-8.131 0-15.001-6.869-15.001-15zm49.396 176.733v-11.934c0-2.947-2.49-5.438-5.438-5.438s-5.438 2.49-5.438 5.438v11.934c0 2.947 2.49 5.438 5.438 5.438s5.438-2.49 5.438-5.438zm-21.938-218.035h137.173l19.749-51.515c2.011-5.247 2.55-8.398 2.666-10.053-4.208-.775-13.236.163-17.879.645-4.265.443-8.293.861-12.071.914-21.158.294-34.424-8.478-44.113-14.876-7.309-4.828-11.396-7.342-16.649-7.234l-.304.006-.304-.006c-5.261-.135-9.315 2.404-16.612 7.227-9.688 6.402-22.992 15.185-44.113 14.884-3.784-.053-7.812-.471-12.077-.914-4.644-.482-13.67-1.421-17.88-.645.116 1.654.655 4.806 2.667 10.054l19.748 51.514zm116.761 266.994c-2.947 0-5.438 2.49-5.438 5.438v11.934c0 2.932 2.49 5.41 5.438 5.41s5.438-2.478 5.438-5.41v-11.934c0-2.948-2.49-5.438-5.438-5.438zm104.921-122.124c28.671 42.823 45.788 93.391 45.788 135.269 0 38.902-13.836 69.921-41.123 92.194-33.772 27.566-87.502 41.544-159.695 41.544s-125.932-13.979-159.707-41.549c-27.289-22.275-41.126-53.298-41.126-92.205 0-41.877 17.114-92.441 45.78-135.26 28.639-42.777 57.808-62.261 72.789-62.261h164.494c14.983 0 44.156 19.486 72.8 62.268zm-205.182 108.602c19.54 0 35.438-15.897 35.438-35.438v-11.934c0-19.541-15.897-35.438-35.438-35.438s-35.438 15.897-35.438 35.438v11.934c0 19.541 15.897 35.438 35.438 35.438zm105.845-58.949c4.894-6.685 3.441-16.071-3.243-20.964-6.683-4.893-16.07-3.442-20.964 3.243l-87.193 119.112c-4.894 6.685-3.441 16.071 3.243 20.964 2.671 1.956 5.773 2.897 8.849 2.897 4.619 0 9.178-2.127 12.115-6.141l87.193-119.112zm29.854 77.908c0-19.541-15.897-35.438-35.438-35.438s-35.438 15.897-35.438 35.438v11.934c0 19.525 15.897 35.41 35.438 35.41s35.438-15.885 35.438-35.41z" fill="#ffffff"/></svg>