<svg xmlns="http://www.w3.org/2000/svg" id="Capa_1" enable-background="new 0 0 512 512" height="512" viewBox="0 0 512 512" width="512"><path d="m494.535 135.121c-8.546-5.494-18.721-7.331-28.647-5.172-9.927 2.159-18.42 8.054-23.913 16.6l-8.202 12.76-47.816 74.384v-223.693c0-5.522-4.477-10-10-10h-365.95c-5.523 0-10 4.478-10 10v361.56c0 5.522 4.477 10 10 10s10-4.478 10-10v-351.56h345.95v244.806l-60.442 94.026c-.678 1.049-1.167 2.278-1.405 3.504l-7.67 39.548c-3.943-1.438-8.465-1.831-13.243-.939-7.122 1.331-13.764 4.659-19.602 9.079-.216-3.358-.533-6.739-.929-10.376-1.107-10.176-5.583-18.436-12.602-23.257-14.636-10.048-32.354 1.768-38.178 5.649-18.853 12.571-35.042 30.407-46.818 51.58-2.685 4.826-.948 10.915 3.879 13.6 1.539.856 3.207 1.263 4.851 1.263 3.512 0 6.92-1.854 8.749-5.142 10.236-18.404 24.218-33.848 40.435-44.66 11.398-7.601 14.946-6.361 15.761-5.803 2.994 2.056 3.823 6.933 4.041 8.934 1.292 11.871 1.646 20.243.16 35.713-.464 4.828 2.604 9.293 7.277 10.591 4.675 1.301 9.605-.945 11.698-5.319 4.575-9.565 14.616-20.26 24.953-22.191 2.062-.384 3.216-.006 3.429 1.099.294 1.774.021 8.549-.583 14.84-1.666 9.146 9.159 15.504 16.236 9.64l60.005-42.813v88.628h-345.952v-32.44c0-5.522-4.477-10-10-10s-10 4.478-10 10v42.44c0 5.522 4.477 10 10 10h365.95c5.523 0 10-4.478 10-10v-127.632l111.805-173.927 8.202-12.76c11.339-17.642 6.213-41.22-11.429-52.56zm-35.736 22.242c5.312-8.264 16.644-10.737 24.921-5.418 8.365 5.377 10.796 16.557 5.419 24.922l-2.794 4.348-30.341-19.504zm-144.682 258.425 6.221-32.077.597-3.078 11.167 7.178 11.167 7.178-10.003 7.137zm53.441-49.784c-.004.006-.009.012-.013.018l-9.459 14.714-30.338-19.501 56.621-88.078c.01-.015.016-.031.025-.046l60.795-94.576 30.341 19.504z" fill="#ffffff"/><path d="m187.75 46.93h-111.273c-5.523 0-10 4.478-10 10v126.317c0 5.522 4.477 10 10 10h111.273c5.523 0 10-4.478 10-10v-126.317c0-5.523-4.477-10-10-10zm-10 20v71.573c-5.522-4.364-11.595-7.406-17.473-9.523 3.523-5.328 5.581-11.705 5.581-18.557 0-18.606-15.138-33.744-33.745-33.744-18.606 0-33.744 15.138-33.744 33.744 0 6.844 2.054 13.215 5.57 18.54-5.874 2.115-11.943 5.153-17.462 9.514v-71.547zm-45.632 57.233c-.025 0-.062-.001-.089-.001-7.54-.046-13.66-6.19-13.66-13.74 0-7.578 6.166-13.744 13.744-13.744 7.579 0 13.745 6.166 13.745 13.744 0 7.553-6.125 13.699-13.669 13.74-.021.001-.051.001-.071.001zm-44.704 49.084c1.399-6.862 4.375-12.448 8.99-16.925 13.001-12.613 34.899-12.174 35.367-12.162.035.001.07-.001.106 0 .079 0 .157.006.237.006.089 0 .176-.006.264-.007.032-.001.064.001.096 0 .219.005 22.264-.437 35.287 12.128 4.646 4.482 7.643 10.081 9.05 16.96z" fill="#ffffff"/><path d="m244.886 86.82h73.375c5.523 0 10-4.478 10-10s-4.477-10-10-10h-73.375c-5.523 0-10 4.478-10 10s4.477 10 10 10z" fill="#ffffff"/><path d="m244.886 130.77h73.375c5.523 0 10-4.478 10-10s-4.477-10-10-10h-73.375c-5.523 0-10 4.478-10 10s4.477 10 10 10z" fill="#ffffff"/><path d="m244.886 174.719h73.375c5.523 0 10-4.478 10-10s-4.477-10-10-10h-73.375c-5.523 0-10 4.478-10 10s4.477 10 10 10z" fill="#ffffff"/><path d="m68.367 230.297v49.206c0 5.522 4.477 10 10 10h239.894c5.523 0 10-4.478 10-10v-49.206c0-5.522-4.477-10-10-10h-239.894c-5.523 0-10 4.477-10 10zm20 10h219.894v29.206h-219.894z" fill="#ffffff"/><path d="m229.829 328.807c0-5.522-4.477-10-10-10h-137.932c-5.523 0-10 4.478-10 10s4.477 10 10 10h137.933c5.522 0 9.999-4.478 9.999-10z" fill="#ffffff"/><path d="m81.897 360.726c-5.523 0-10 4.478-10 10s4.477 10 10 10h64.945c5.523 0 10-4.478 10-10s-4.477-10-10-10z" fill="#ffffff"/><path d="m1.697 421.52c3.023 4.537 9.328 5.766 13.86 2.76 4.544-3.014 5.769-9.344 2.76-13.869-3.015-4.536-9.338-5.773-13.86-2.761-4.565 3.04-5.739 9.318-2.76 13.87z" fill="#ffffff"/></svg>