<?xml version="1.0" encoding="UTF-8"?>
<svg id="Layer_2" data-name="Layer 2" xmlns="http://www.w3.org/2000/svg" viewBox="0 0 45.31 32.54">
  <defs>
    <style>
      .cls-1 {
        fill: #fff;
      }
    </style>
  </defs>
  <g id="Layer_1-2" data-name="Layer 1">
    <g>
      <g>
        <path class="cls-1" d="M17.55,19.79H.71c-.39,0-.71-.32-.71-.71V2.1c0-.39.32-.71.71-.71h16.84c.32,0,.6.21.68.52.08.31-.04.63-.32.8-.42.25-.81.54-1.17.84-.3.25-.74.22-1-.08-.16-.19-.21-.44-.14-.67H1.42v15.57h16.13c.39,0,.71.32.71.71s-.32.71-.71.71Z"/>
        <path class="cls-1" d="M44.6,19.79h-16.84c-.39,0-.71-.32-.71-.71s.32-.71.71-.71h16.13V2.8h-14.02c.56.52,1.05,1.09,1.49,1.72.22.32.14.76-.18.98-.32.22-.76.14-.98-.18-.74-1.06-1.68-1.95-2.81-2.63-.27-.16-.4-.49-.32-.8.09-.31.36-.52.68-.52h16.84c.39,0,.71.32.71.71v16.99c0,.39-.32.71-.71.71h0Z"/>
        <path class="cls-1" d="M4.96,5.64H.71c-.39,0-.71-.32-.71-.71s.32-.71.71-.71h3.54v-1.42H.71c-.39,0-.71-.32-.71-.71s.32-.71.71-.71h4.25c.39,0,.71.32.71.71v2.83c0,.39-.32.71-.71.71Z"/>
        <path class="cls-1" d="M10.62,5.64h-5.66c-.39,0-.71-.32-.71-.71v-2.83c0-.39.32-.71.71-.71h5.66c.39,0,.71.32.71.71v2.83c0,.39-.32.71-.71.71ZM5.66,4.22h4.25v-1.42h-4.25v1.42Z"/>
        <path class="cls-1" d="M14.53,5.64h-3.91c-.39,0-.71-.32-.71-.71v-2.83c0-.39.32-.71.71-.71h5.66c.39,0,.71.32.71.71v.91c0,.39-.32.71-.71.71s-.71-.32-.71-.71v-.21h-4.25v1.42h3.2c.39,0,.71.32.71.71s-.32.71-.71.71Z"/>
        <path class="cls-1" d="M16.28,3.72c-.1,0-.2-.02-.3-.07-.25-.12-.41-.37-.41-.64v-.91c0-.39.32-.71.71-.71h1.27c.32,0,.6.21.68.52.08.31-.04.63-.32.8-.42.25-.81.54-1.17.84-.13.11-.29.17-.46.17h0Z"/>
        <path class="cls-1" d="M33.27,5.64h-2.49c-.23,0-.45-.11-.58-.31-.74-1.06-1.68-1.95-2.81-2.63-.27-.16-.4-.49-.32-.8.09-.31.36-.52.68-.52h5.51c.39,0,.71.32.71.71v2.83c0,.39-.32.71-.71.71h0ZM31.14,4.22h1.42v-1.42h-2.69c.47.43.89.9,1.27,1.42h0Z"/>
        <path class="cls-1" d="M38.94,5.64h-5.66c-.39,0-.71-.32-.71-.71v-2.83c0-.39.32-.71.71-.71h5.66c.39,0,.71.32.71.71v2.83c0,.39-.32.71-.71.71ZM33.98,4.22h4.25v-1.42h-4.25v1.42Z"/>
        <path class="cls-1" d="M44.6,5.64h-5.66c-.39,0-.71-.32-.71-.71v-2.83c0-.39.32-.71.71-.71h5.66c.39,0,.71.32.71.71v2.83c0,.39-.32.71-.71.71ZM39.64,4.22h4.25v-1.42h-4.25v1.42Z"/>
        <path class="cls-1" d="M8.5,8.47H2.83c-.39,0-.71-.32-.71-.71v-2.83c0-.39.32-.71.71-.71h5.66c.39,0,.71.32.71.71v2.83c0,.39-.32.71-.71.71ZM3.54,7.05h4.25v-1.42H3.54v1.42Z"/>
        <path class="cls-1" d="M2.83,8.47H.71c-.39,0-.71-.32-.71-.71s.32-.71.71-.71h1.42v-1.42H.71c-.39,0-.71-.32-.71-.71s.32-.71.71-.71h2.12c.39,0,.71.32.71.71v2.83c0,.39-.32.71-.71.71Z"/>
        <path class="cls-1" d="M13.15,8.47h-4.66c-.39,0-.71-.32-.71-.71v-2.83c0-.39.32-.71.71-.71h5.66c.39,0,.71.32.71.71v.56c0,.13-.03.25-.1.36-.4.67-.72,1.38-.93,2.11-.09.3-.37.51-.68.51ZM9.2,7.05h3.44c.17-.48.38-.96.62-1.42h-4.06v1.42Z"/>
        <path class="cls-1" d="M14.16,6.19c-.06,0-.13,0-.19-.02-.31-.08-.52-.36-.52-.68v-.56c0-.39.32-.71.71-.71h.37c.27,0,.51.15.63.39.12.24.1.52-.06.74-.12.17-.23.33-.33.5-.13.22-.36.35-.61.35h0Z"/>
        <path class="cls-1" d="M31.15,6.19c-.25,0-.48-.13-.61-.35-.1-.17-.21-.34-.33-.5-.16-.22-.18-.5-.06-.74.12-.24.37-.39.63-.39h.37c.39,0,.71.32.71.71v.56c0,.32-.21.6-.52.68-.06.02-.12.02-.19.02h0Z"/>
        <path class="cls-1" d="M36.81,8.47h-4.66c-.31,0-.59-.21-.68-.51-.22-.73-.53-1.44-.93-2.11-.07-.11-.1-.24-.1-.36v-.56c0-.39.32-.71.71-.71h5.66c.39,0,.71.32.71.71v2.83c0,.39-.32.71-.71.71h0ZM32.67,7.05h3.44v-1.42h-4.06c.24.46.45.93.62,1.42Z"/>
        <path class="cls-1" d="M42.48,8.47h-5.66c-.39,0-.71-.32-.71-.71v-2.83c0-.39.32-.71.71-.71h5.66c.39,0,.71.32.71.71v2.83c0,.39-.32.71-.71.71ZM37.52,7.05h4.25v-1.42h-4.25v1.42Z"/>
        <path class="cls-1" d="M44.6,8.47h-2.12c-.39,0-.71-.32-.71-.71v-2.83c0-.39.32-.71.71-.71h2.12c.39,0,.71.32.71.71s-.32.71-.71.71h-1.42v1.42h1.42c.39,0,.71.32.71.71s-.32.71-.71.71Z"/>
        <path class="cls-1" d="M4.96,11.3H.71c-.39,0-.71-.32-.71-.71s.32-.71.71-.71h3.54v-1.42H.71c-.39,0-.71-.32-.71-.71s.32-.71.71-.71h4.25c.39,0,.71.32.71.71v2.83c0,.39-.32.71-.71.71Z"/>
        <path class="cls-1" d="M10.62,11.3h-5.66c-.39,0-.71-.32-.71-.71v-2.83c0-.39.32-.71.71-.71h5.66c.39,0,.71.32.71.71v2.83c0,.39-.32.71-.71.71ZM5.66,9.88h4.25v-1.42h-4.25v1.42Z"/>
        <path class="cls-1" d="M12.74,11.3h-2.12c-.39,0-.71-.32-.71-.71v-2.83c0-.39.32-.71.71-.71h2.53c.22,0,.43.11.57.28.13.18.17.41.11.63-.25.84-.38,1.73-.38,2.63,0,.39-.32.71-.71.71ZM11.33,9.88h.73c.03-.48.09-.95.19-1.42h-.92v1.42Z"/>
        <path class="cls-1" d="M33.27,11.3h-.71c-.39,0-.71-.32-.71-.71,0-.9-.13-1.78-.38-2.63-.06-.21-.02-.45.11-.63.13-.18.34-.28.57-.28h1.12c.39,0,.71.32.71.71v2.83c0,.39-.32.71-.71.71Z"/>
        <path class="cls-1" d="M38.94,11.3h-5.66c-.39,0-.71-.32-.71-.71v-2.83c0-.39.32-.71.71-.71h5.66c.39,0,.71.32.71.71v2.83c0,.39-.32.71-.71.71ZM33.98,9.88h4.25v-1.42h-4.25v1.42Z"/>
        <path class="cls-1" d="M44.6,11.3h-5.66c-.39,0-.71-.32-.71-.71v-2.83c0-.39.32-.71.71-.71h5.66c.39,0,.71.32.71.71v2.83c0,.39-.32.71-.71.71ZM39.64,9.88h4.25v-1.42h-4.25v1.42Z"/>
        <path class="cls-1" d="M8.5,14.13H2.83c-.39,0-.71-.32-.71-.71v-2.83c0-.39.32-.71.71-.71h5.66c.39,0,.71.32.71.71v2.83c0,.39-.32.71-.71.71ZM3.54,12.71h4.25v-1.42H3.54v1.42Z"/>
        <path class="cls-1" d="M2.83,14.13H.71c-.39,0-.71-.32-.71-.71s.32-.71.71-.71h1.42v-1.42H.71c-.39,0-.71-.32-.71-.71s.32-.71.71-.71h2.12c.39,0,.71.32.71.71v2.83c0,.39-.32.71-.71.71Z"/>
        <path class="cls-1" d="M13.15,14.13h-4.66c-.39,0-.71-.32-.71-.71v-2.83c0-.39.32-.71.71-.71h4.25c.39,0,.71.32.71.71,0,.9.13,1.78.38,2.63.06.21.02.45-.11.63-.13.18-.34.28-.57.28ZM9.2,12.71h3.04c-.09-.47-.16-.94-.19-1.42h-2.85v1.42Z"/>
        <path class="cls-1" d="M36.81,14.13h-4.66c-.22,0-.43-.11-.57-.28-.13-.18-.17-.41-.11-.63.25-.84.38-1.73.38-2.63,0-.39.32-.71.71-.71h4.25c.39,0,.71.32.71.71v2.83c0,.39-.32.71-.71.71ZM33.06,12.71h3.04v-1.42h-2.85c-.03.48-.09.95-.19,1.42h0Z"/>
        <path class="cls-1" d="M42.48,14.13h-5.66c-.39,0-.71-.32-.71-.71v-2.83c0-.39.32-.71.71-.71h5.66c.39,0,.71.32.71.71v2.83c0,.39-.32.71-.71.71ZM37.52,12.71h4.25v-1.42h-4.25v1.42Z"/>
        <path class="cls-1" d="M44.6,14.13h-2.12c-.39,0-.71-.32-.71-.71v-2.83c0-.39.32-.71.71-.71h2.12c.39,0,.71.32.71.71s-.32.71-.71.71h-1.42v1.42h1.42c.39,0,.71.32.71.71s-.32.71-.71.71Z"/>
        <path class="cls-1" d="M4.96,16.96H.71c-.39,0-.71-.32-.71-.71s.32-.71.71-.71h3.54v-1.42H.71c-.39,0-.71-.32-.71-.71s.32-.71.71-.71h4.25c.39,0,.71.32.71.71v2.83c0,.39-.32.71-.71.71Z"/>
        <path class="cls-1" d="M10.62,16.96h-5.66c-.39,0-.71-.32-.71-.71v-2.83c0-.39.32-.71.71-.71h5.66c.39,0,.71.32.71.71v2.83c0,.39-.32.71-.71.71ZM5.66,15.55h4.25v-1.42h-4.25v1.42Z"/>
        <path class="cls-1" d="M14.53,16.96h-3.91c-.39,0-.71-.32-.71-.71v-2.83c0-.39.32-.71.71-.71h2.53c.31,0,.59.21.68.51.28.94.71,1.82,1.27,2.63.15.22.17.5.05.73-.12.23-.36.38-.63.38h0ZM11.33,15.55h1.94c-.24-.46-.45-.93-.62-1.42h-1.31v1.42Z"/>
        <path class="cls-1" d="M33.27,16.96h-2.49c-.26,0-.51-.15-.63-.38-.12-.23-.1-.52.05-.73.57-.81.99-1.69,1.27-2.63.09-.3.37-.51.68-.51h1.12c.39,0,.71.32.71.71v2.83c0,.39-.32.71-.71.71h0ZM32.04,15.55h.52v-1.14c-.15.39-.32.77-.52,1.14Z"/>
        <path class="cls-1" d="M38.94,16.96h-5.66c-.39,0-.71-.32-.71-.71v-2.83c0-.39.32-.71.71-.71h5.66c.39,0,.71.32.71.71v2.83c0,.39-.32.71-.71.71ZM33.98,15.55h4.25v-1.42h-4.25v1.42Z"/>
        <path class="cls-1" d="M44.6,16.96h-5.66c-.39,0-.71-.32-.71-.71v-2.83c0-.39.32-.71.71-.71h5.66c.39,0,.71.32.71.71v2.83c0,.39-.32.71-.71.71ZM39.64,15.55h4.25v-1.42h-4.25v1.42Z"/>
        <path class="cls-1" d="M8.5,19.79H2.83c-.39,0-.71-.32-.71-.71v-2.83c0-.39.32-.71.71-.71h5.66c.39,0,.71.32.71.71v2.83c0,.39-.32.71-.71.71ZM3.54,18.38h4.25v-1.42H3.54v1.42Z"/>
        <path class="cls-1" d="M2.83,19.79H.71c-.39,0-.71-.32-.71-.71s.32-.71.71-.71h1.42v-1.42H.71c-.39,0-.71-.32-.71-.71s.32-.71.71-.71h2.12c.39,0,.71.32.71.71v2.83c0,.39-.32.71-.71.71Z"/>
        <path class="cls-1" d="M14.16,19.79h-5.66c-.39,0-.71-.32-.71-.71v-2.83c0-.39.32-.71.71-.71h5.66c.39,0,.71.32.71.71v2.83c0,.39-.32.71-.71.71ZM9.2,18.38h4.25v-1.42h-4.25v1.42Z"/>
        <path class="cls-1" d="M17.55,19.79h-3.39c-.39,0-.71-.32-.71-.71v-2.83c0-.39.32-.71.71-.71h.37c.39,0,.71.32.71.71,0,.27-.15.5-.37.62v1.5h2.68c.39,0,.71.32.71.71s-.32.71-.71.71Z"/>
        <path class="cls-1" d="M31.15,19.79h-3.39c-.32,0-.6-.21-.68-.52-.08-.31.04-.63.32-.8,1.13-.68,2.07-1.56,2.81-2.63.13-.19.35-.31.58-.31h.37c.39,0,.71.32.71.71v2.83c0,.39-.32.71-.71.71h0ZM29.87,18.38h.57v-.57c-.18.2-.37.39-.57.57Z"/>
        <path class="cls-1" d="M36.81,19.79h-5.66c-.39,0-.71-.32-.71-.71v-2.83c0-.39.32-.71.71-.71h5.66c.39,0,.71.32.71.71v2.83c0,.39-.32.71-.71.71ZM31.86,18.38h4.25v-1.42h-4.25v1.42Z"/>
        <path class="cls-1" d="M42.48,19.79h-5.66c-.39,0-.71-.32-.71-.71v-2.83c0-.39.32-.71.71-.71h5.66c.39,0,.71.32.71.71v2.83c0,.39-.32.71-.71.71ZM37.52,18.38h4.25v-1.42h-4.25v1.42Z"/>
        <path class="cls-1" d="M44.6,19.79h-2.12c-.39,0-.71-.32-.71-.71v-2.83c0-.39.32-.71.71-.71h2.12c.39,0,.71.32.71.71s-.32.71-.71.71h-1.42v1.42h1.42c.39,0,.71.32.71.71s-.32.71-.71.71Z"/>
      </g>
      <path class="cls-1" d="M27.76,2.8c-.12,0-.25-.03-.36-.1-2.86-1.72-6.62-1.72-9.48,0-.33.2-.77.09-.97-.24-.2-.34-.09-.77.24-.97,3.3-1.99,7.64-1.99,10.94,0,.33.2.44.64.24.97-.13.22-.37.34-.61.34h0Z"/>
      <path class="cls-1" d="M14.53,5.64c-.14,0-.28-.04-.4-.13-.32-.22-.4-.66-.18-.99.54-.77,1.17-1.47,1.89-2.06.3-.25.75-.21,1,.09.25.3.21.75-.09,1-.62.51-1.16,1.11-1.63,1.78-.14.2-.36.3-.58.3h0Z"/>
      <path class="cls-1" d="M19.11,20.55c-.08,0-.17-.01-.25-.05-.58-.22-1.14-.49-1.68-.81-1.3-.78-2.39-1.81-3.24-3.04-.22-.32-.14-.76.18-.98.32-.22.76-.14.98.18.74,1.06,1.68,1.95,2.81,2.63.46.28.95.51,1.45.7.37.14.55.55.41.91-.11.28-.38.46-.66.46h0Z"/>
      <path class="cls-1" d="M26.19,20.55c-.29,0-.56-.17-.66-.46-.14-.37.05-.77.41-.91.5-.19.99-.42,1.45-.7.34-.2.77-.09.97.24s.09.77-.24.97c-.54.32-1.1.6-1.68.81-.08.03-.17.05-.25.05h0Z"/>
      <path class="cls-1" d="M26.19,17.43c-.24,0-.48-.13-.61-.35-.2-.34-.08-.77.26-.97,1.97-1.14,3.19-3.25,3.19-5.52,0-3.51-2.86-6.37-6.37-6.37s-6.37,2.86-6.37,6.37c0,2.27,1.22,4.38,3.19,5.52.34.2.45.63.26.97-.2.34-.63.45-.97.26-2.4-1.39-3.89-3.97-3.89-6.74,0-4.29,3.49-7.79,7.79-7.79s7.79,3.49,7.79,7.79c0,2.77-1.49,5.35-3.89,6.74-.11.07-.23.1-.35.1h0Z"/>
      <path class="cls-1" d="M26.19,28.29h-7.08c-.39,0-.71-.32-.71-.71v-12.74c0-1.17.95-2.12,2.12-2.12h4.25c1.17,0,2.12.95,2.12,2.12v12.74c0,.39-.32.71-.71.71ZM19.82,26.87h5.66v-12.03c0-.39-.32-.71-.71-.71h-4.25c-.39,0-.71.32-.71.71v12.03Z"/>
      <path class="cls-1" d="M44.6,32.54H.71c-.39,0-.71-.32-.71-.71v-4.25c0-.39.32-.71.71-.71h43.89c.39,0,.71.32.71.71v4.25c0,.39-.32.71-.71.71ZM1.42,31.12h42.48v-2.83H1.42v2.83Z"/>
      <path class="cls-1" d="M41.06,24.75c-1.17,0-2.12-.95-2.12-2.12s.95-2.12,2.12-2.12,2.12.95,2.12,2.12-.95,2.12-2.12,2.12ZM41.06,21.92c-.39,0-.71.32-.71.71s.32.71.71.71.71-.32.71-.71-.32-.71-.71-.71Z"/>
      <path class="cls-1" d="M33.27,25.46c-1.17,0-2.12-.95-2.12-2.12s.95-2.12,2.12-2.12,2.12.95,2.12,2.12-.95,2.12-2.12,2.12ZM33.27,22.63c-.39,0-.71.32-.71.71s.32.71.71.71.71-.32.71-.71-.32-.71-.71-.71Z"/>
      <path class="cls-1" d="M30.44,28.29c-.39,0-.71-.32-.71-.71,0-.78-.64-1.42-1.42-1.42s-1.42.64-1.42,1.42c0,.39-.32.71-.71.71s-.71-.32-.71-.71c0-1.56,1.27-2.83,2.83-2.83s2.83,1.27,2.83,2.83c0,.39-.32.71-.71.71Z"/>
      <path class="cls-1" d="M40.35,28.29c-.39,0-.71-.32-.71-.71,0-.78-.64-1.42-1.42-1.42s-1.42.64-1.42,1.42c0,.39-.32.71-.71.71s-.71-.32-.71-.71c0-1.56,1.27-2.83,2.83-2.83s2.83,1.27,2.83,2.83c0,.39-.32.71-.71.71Z"/>
      <path class="cls-1" d="M4.25,24.75c-1.17,0-2.12-.95-2.12-2.12s.95-2.12,2.12-2.12,2.12.95,2.12,2.12-.95,2.12-2.12,2.12ZM4.25,21.92c-.39,0-.71.32-.71.71s.32.71.71.71.71-.32.71-.71-.32-.71-.71-.71Z"/>
      <path class="cls-1" d="M12.03,25.46c-1.17,0-2.12-.95-2.12-2.12s.95-2.12,2.12-2.12,2.12.95,2.12,2.12-.95,2.12-2.12,2.12ZM12.03,22.63c-.39,0-.71.32-.71.71s.32.71.71.71.71-.32.71-.71-.32-.71-.71-.71Z"/>
      <path class="cls-1" d="M19.11,28.29c-.39,0-.71-.32-.71-.71,0-.78-.64-1.42-1.42-1.42s-1.42.64-1.42,1.42c0,.39-.32.71-.71.71s-.71-.32-.71-.71c0-1.56,1.27-2.83,2.83-2.83s2.83,1.27,2.83,2.83c0,.39-.32.71-.71.71Z"/>
      <path class="cls-1" d="M9.2,28.29c-.39,0-.71-.32-.71-.71,0-.78-.64-1.42-1.42-1.42s-1.42.64-1.42,1.42c0,.39-.32.71-.71.71s-.71-.32-.71-.71c0-1.56,1.27-2.83,2.83-2.83s2.83,1.27,2.83,2.83c0,.39-.32.71-.71.71Z"/>
    </g>
  </g>
</svg>