<?xml version="1.0" encoding="UTF-8"?>
<svg id="Layer_2" data-name="Layer 2" xmlns="http://www.w3.org/2000/svg" viewBox="0 0 28.03 38.48">
  <defs>
    <style>
      .cls-1 {
        fill: #fff;
      }
    </style>
  </defs>
  <g id="Layer_1-2" data-name="Layer 1">
    <g>
      <path class="cls-1" d="M6.35,7.04c-.61,0-1.1.49-1.1,1.1s.49,1.1,1.1,1.1h15.34c.61,0,1.1-.49,1.1-1.1s-.49-1.1-1.1-1.1H6.35Z"/>
      <path class="cls-1" d="M18.22,0c-.67,0-1.21.54-1.21,1.21v4.46h2.42V1.21c0-.67-.54-1.21-1.21-1.21Z"/>
      <path class="cls-1" d="M6.62,32.42c-.18-.33-.35-.67-.5-1.01-.74-1.64-.7-3.16.11-4.2.49-.62,1.18-.96,1.79-1.25.29-.14.57-.27.82-.43.14-.09.23-.17.28-.23.03-.04.05-.1.07-.17H0c.02.31.04.62.08.93.01.11.03.21.05.32.03.2.05.4.09.59.02.13.05.25.08.38.04.17.07.35.12.52.03.13.07.26.11.4.05.16.09.33.14.49.04.13.09.27.14.4.06.15.11.31.17.46.05.13.11.26.17.4.06.15.13.3.2.44.06.13.13.26.2.39.07.14.15.28.22.42.07.13.15.25.22.38.08.14.16.27.25.4.08.12.16.25.25.37.09.13.18.26.27.38.09.12.18.24.27.35.1.12.2.24.3.36.1.11.19.23.29.34.11.12.21.23.32.34.1.11.21.21.31.32.11.11.23.22.34.32.11.1.22.2.33.3.12.1.24.2.37.3.12.09.23.19.35.27.13.1.26.19.39.28.12.08.24.17.37.25.14.09.28.17.42.26.13.08.25.15.38.23.03.02.06.03.09.05.22-.76.27-1.63.19-2.16-.12-.75-.49-1.44-.88-2.18h0Z"/>
      <path class="cls-1" d="M20.18,13v-2.39H7.85v2.39c0,3.4,2.77,6.17,6.17,6.17s6.17-2.77,6.17-6.17h0Z"/>
      <path class="cls-1" d="M16.68,31.57c.82-.45,1.52-.85,1.77-1.51.22-.58.04-1.29-.15-2.04-.09-.37-.19-.76-.25-1.15-.08-.59-.06-1.18.05-1.73h-7.55s0,.03,0,.04c-.03.33-.14.64-.31.9-.21.31-.49.5-.68.62-.32.2-.65.36-.96.51-.52.25-1.01.49-1.3.86-.71.9-.13,2.36.06,2.78.14.32.31.63.47.94.42.8.86,1.63,1.01,2.6.13.77.05,1.95-.29,2.99,1.72.73,3.55,1.1,5.46,1.1.31,0,.63-.01.95-.04-.34-.55-.63-1.11-.81-1.73-.38-1.26-.24-2.52.38-3.44.55-.8,1.37-1.25,2.16-1.69h0Z"/>
      <path class="cls-1" d="M9.8,0c-.67,0-1.21.54-1.21,1.21v4.46h2.42V1.21c0-.67-.54-1.21-1.21-1.21Z"/>
      <path class="cls-1" d="M12.51,20.39v3.36h3.01v-3.36c-.49.1-.99.15-1.51.15s-1.02-.05-1.5-.15Z"/>
      <path class="cls-1" d="M19.42,26.67c.05.32.13.65.22,1.01.22.88.47,1.87.11,2.86-.43,1.14-1.47,1.72-2.39,2.23-.68.38-1.33.74-1.69,1.27-.38.57-.46,1.42-.2,2.27.2.67.57,1.28,1,1.93.15-.03.3-.05.44-.09.19-.04.38-.08.57-.13.21-.05.41-.11.61-.18.18-.06.37-.11.54-.17.2-.07.4-.15.59-.23.17-.07.35-.14.52-.21.19-.09.38-.18.57-.28.16-.08.33-.16.49-.25.19-.1.36-.22.54-.33.16-.1.31-.19.46-.29.18-.12.34-.25.52-.37.15-.11.29-.21.43-.33.17-.13.32-.28.48-.42.13-.12.27-.23.4-.36.15-.15.3-.3.45-.46.12-.13.25-.25.37-.39.14-.16.27-.33.41-.49.11-.14.23-.27.34-.42.13-.17.25-.35.37-.53.1-.15.21-.29.3-.44.11-.18.22-.37.32-.56.09-.15.18-.31.26-.46.1-.19.19-.4.28-.59.07-.16.15-.31.22-.48.09-.21.16-.42.23-.63.06-.16.12-.32.18-.49.07-.22.13-.45.19-.68.04-.16.09-.32.13-.48.06-.25.1-.51.14-.77.02-.14.06-.28.08-.42.06-.4.09-.81.11-1.22h-8.52c-.13.48-.16,1.01-.09,1.54h0Z"/>
    </g>
  </g>
</svg>