<?xml version="1.0" encoding="UTF-8"?>
<svg id="Layer_2" data-name="Layer 2" xmlns="http://www.w3.org/2000/svg" viewBox="0 0 39.83 39.95">
  <defs>
    <style>
      .cls-1 {
        fill: #fff;
        fill-rule: evenodd;
      }
    </style>
  </defs>
  <g id="Layer_1-2" data-name="Layer 1">
    <path class="cls-1" d="M17.92,37.96v-1.99h1c.55,0,1-.45,1-1v-2.99c0-.55-.45-1-1-1h-1.99v-1h1.99c.55,0,1-.45,1-1v-4.98c0-.55-.45-1-1-1h-7.97v-7.02c1.14-.22,1.99-1.22,1.99-2.42v-1.43l.85-5.06h-7.67l.85,5.06v1.43c0,1.2.86,2.2,1.99,2.42v7.02H1c-.55,0-1,.45-1,1v4.98c0,.55.45,1,1,1h1.99v1H1c-.55,0-1,.45-1,1v2.99c0,.55.45,1,1,1h1v1.99h-1c-.55,0-1,.45-1,1s.45,1,1,1h37.84c.55,0,1-.45,1-1s-.42-.97-.95-1c-.02-1.55-.55-2.63-1.42-3.31-.96-.74-2.45-1.02-4.44-.73-1.72-.84-3.16-.99-4.2-.54-.65.28-1.19.79-1.59,1.56-1.31.04-2.15.47-2.67,1.07-.42.5-.66,1.15-.7,1.93h-5.94,0ZM3.98,35.97v1.99h4.98v-1.99H3.98ZM10.95,35.97v1.99h4.98v-1.99h-4.98ZM27.88,32.05c.28-.28.6-.49.94-.64,1.05-.45,2.47-.3,4.2.54.29-.04.57-.07.84-.09v-7.58c.11-.07.22-.15.33-.24,2.36.12,3.79-.51,4.52-1.51.72-1,.83-2.51.2-4.45,1.15-2.81.84-5.25-.96-7.29.32-1.31.26-2.4-.09-3.28-.35-.86-.97-1.53-1.89-2.02.2-1.73-.39-2.76-1.45-3.21-.48-.71-1.7-2.16-3.64-2.16s-3.05,1.29-3.55,2.64c-.22.6-.33,1.19-.39,1.63-1.15.5-1.86,1.23-2.23,2.15-.31.79-.35,1.73-.08,2.84-.62.25-1.07.63-1.36,1.1-.38.58-.54,1.33-.43,2.26-1.54,1.72-1.76,3.5-1.03,5.31-.73,1.66-.79,2.96-.4,3.88.43,1.02,1.4,1.74,2.99,2.03.74.76,1.51,1.14,2.28,1.25.4.06.8.05,1.2-.03v6.88-.02ZM4.98,29.99v1h3.98v-1h-3.98ZM10.95,29.99v1h3.98v-1h-3.98ZM14.75,19.63c.19-.27.35-.47.58-.48.29,0,.56.24.89.58.19.2.45.31.73.31s.53-.12.72-.32c.29-.31.53-.55.82-.57.24,0,.42.19.66.5.34.44.97.52,1.39.18.44-.34.52-.97.18-1.39-.78-1.01-1.59-1.31-2.36-1.26-.47.03-.95.22-1.42.56-.57-.4-1.12-.57-1.61-.56-.77,0-1.52.4-2.17,1.29-.32.45-.22,1.07.22,1.39.45.32,1.07.22,1.39-.22h0ZM25.17,17.75c.69.71,1.45,1.02,2.21,1.01.74,0,1.49-.32,2.18-.99.4-.38.41-1.02.03-1.4-.38-.4-1.02-.41-1.4-.03-.27.26-.54.43-.82.43s-.52-.15-.77-.41c-.38-.4-1.02-.4-1.4-.02-.4.38-.4,1.02-.02,1.4h0ZM31.15,13.76c.69.71,1.45,1.02,2.21,1.01.74,0,1.49-.32,2.18-.99.4-.38.41-1.02.03-1.4-.38-.4-1.02-.41-1.4-.03-.27.26-.54.43-.82.43s-.52-.15-.77-.41c-.38-.4-1.02-.4-1.4-.02-.4.38-.4,1.02-.02,1.4h0ZM28.16,8.78c.69.71,1.45,1.02,2.21,1.01.74,0,1.49-.32,2.18-.99.4-.38.41-1.02.03-1.4-.38-.4-1.02-.41-1.4-.03-.27.26-.54.43-.82.43s-.52-.15-.77-.41c-.38-.4-1.02-.4-1.4-.02-.4.38-.4,1.02-.02,1.4h0ZM9.01,2.22c-1.42.35-2.54,1.45-2.91,2.88h7.72c-.36-1.38-1.43-2.48-2.82-2.85v-1.24c.02-.55-.43-1-.98-1.01-.55,0-1,.44-1.01.99v1.23h0ZM17.74,4.57c.19-.27.35-.47.58-.48.29,0,.56.24.89.58.19.2.45.31.73.31s.53-.12.72-.32c.29-.31.53-.55.82-.57.24,0,.42.19.66.5.34.44.97.52,1.39.18.44-.34.52-.97.18-1.39-.78-1.01-1.59-1.31-2.36-1.26-.47.03-.95.22-1.42.56-.57-.4-1.12-.57-1.61-.56-.77,0-1.52.4-2.17,1.29-.32.45-.22,1.07.22,1.39.45.32,1.07.22,1.39-.22h0ZM2.17,2.12s.12.07.18.11c.12.1.24.23.37.39.19.24.48.38.79.37.31,0,.59-.14.78-.38.14-.18.27-.32.41-.43.03-.02.07-.05.1-.06.06.05.24.23.36.42.3.46.92.6,1.37.3s.6-.92.3-1.37C6.12.38,5.34.07,4.65.13c-.38.03-.78.19-1.17.48-.48-.35-.94-.49-1.34-.49C1.45.12.74.52.15,1.48c-.29.47-.13,1.09.34,1.36.47.29,1.09.13,1.36-.34.1-.16.26-.33.32-.39Z"/>
  </g>
</svg>