<?xml version="1.0" encoding="UTF-8"?>
<svg id="Layer_2" data-name="Layer 2" xmlns="http://www.w3.org/2000/svg" viewBox="0 0 36.96 36.96">
  <defs>
    <style>
      .cls-1 {
        fill: #fff;
      }
    </style>
  </defs>
  <g id="Layer_1-2" data-name="Layer 1">
    <path class="cls-1" d="M36.77,33.85l-1.13-1.13v-1.87c0-.36-.3-.66-.66-.66s-.66.3-.66.66v1.48h-5.28v-9.24h5.28v5.12c0,.36.3.66.66.66s.66-.3.66-.66v-11.06C35.64,7.69,27.97,0,18.49,0c-2.69,0-5.35.63-7.75,1.85-.33.16-.46.56-.29.89.16.33.56.46.89.29,0,0,0,0,0,0C17.45-.06,24.85,1.12,29.68,5.96c.06.06.13.13.19.2l-4.07,4.07c-4.08-3.96-10.56-3.96-14.64,0l-4.07-4.07c.62-.65,1.3-1.25,2.03-1.78.29-.22.36-.63.14-.92-.22-.29-.63-.36-.92-.14C3.94,6.56,1.33,11.69,1.32,17.16v15.57l-1.13,1.13C.07,33.98,0,34.15,0,34.32v1.98c0,.36.29.66.66.66h9.24c.36,0,.66-.29.66-.66h0v-1.98c0-.18-.07-.34-.19-.47l-1.13-1.13v-14.91c0-5.1,4.14-9.24,9.24-9.24s9.24,4.14,9.24,9.24v14.91l-1.13,1.13c-.12.12-.19.29-.19.47v1.98c0,.36.29.66.66.66h9.24c.36,0,.66-.29.66-.66h0v-1.98c0-.18-.07-.34-.19-.47ZM2.64,23.1h5.28v9.24H2.64v-9.24ZM7.92,21.78H2.64v-2.64h5.28v2.64ZM9.24,35.64H1.32v-1.05l.93-.93h6.05l.93.93v1.05ZM7.92,17.82H2.64v-.66c0-3.65,1.27-7.18,3.58-10.01l4.05,4.05c-1.52,1.87-2.35,4.21-2.35,6.62ZM29.04,21.78v-2.64h5.28v2.64h-5.28ZM26.7,11.2l4.06-4.06c2.32,2.82,3.58,6.37,3.57,10.02v.66h-5.28c0-2.41-.83-4.75-2.35-6.62ZM35.64,35.64h-7.92v-1.05l.93-.93h6.05l.93.93v1.05Z"/>
  </g>
</svg>